<svg width="45" height="45" viewBox="0 0 45 45" fill="none" xmlns="http://www.w3.org/2000/svg">
<g id="document-text">
<path id="Vector" d="M16.875 22.5H28.125M16.875 30H28.125M31.875 39.375H13.125C12.1304 39.375 11.1766 38.9799 10.4733 38.2766C9.77009 37.5734 9.375 36.6196 9.375 35.625V9.375C9.375 8.38044 9.77009 7.42661 10.4733 6.72335C11.1766 6.02009 12.1304 5.625 13.125 5.625H23.5988C24.096 5.62511 24.5728 5.82272 24.9244 6.17437L35.0756 16.3256C35.4273 16.6772 35.6249 17.154 35.625 17.6512V35.625C35.625 36.6196 35.2299 37.5734 34.5266 38.2766C33.8234 38.9799 32.8696 39.375 31.875 39.375Z" stroke="white" stroke-width="2" stroke-linecap="round" stroke-linejoin="round"/>
</g>
</svg>
