<svg width="38" height="41" viewBox="0 0 38 41" fill="none" xmlns="http://www.w3.org/2000/svg">
<g id="Group">
<path id="Vector" d="M31.5 19.5V7.77938C31.5001 7.63137 31.471 7.4848 31.4144 7.34806C31.3578 7.21131 31.2747 7.08709 31.17 6.9825L25.2675 1.08C25.0567 0.868961 24.7708 0.750263 24.4725 0.75H2.625C2.32663 0.75 2.04048 0.868526 1.8295 1.0795C1.61853 1.29048 1.5 1.57663 1.5 1.875V37.125C1.5 37.4234 1.61853 37.7095 1.8295 37.9205C2.04048 38.1315 2.32663 38.25 2.625 38.25H18.375M9 15.75H24M9 8.25H16.5M9 23.25H14.625" stroke="white" stroke-width="1.5" stroke-linecap="round" stroke-linejoin="round"/>
<path id="Vector_2" d="M24 0.75V7.125C24 7.42337 24.1185 7.70952 24.3295 7.9205C24.5405 8.13147 24.8266 8.25 25.125 8.25H31.5M31.485 25.3594L36.2775 26.5763C36.7763 26.7038 37.1269 27.1575 37.1119 27.6712C36.7894 38.4675 30.5625 40.125 30.5625 40.125C30.5625 40.125 24.3356 38.4675 24.0131 27.6712C24.0073 27.4211 24.0868 27.1765 24.2384 26.9775C24.39 26.7785 24.6048 26.637 24.8475 26.5763L29.64 25.3594C30.2456 25.2056 30.8794 25.2056 31.485 25.3594Z" stroke="white" stroke-width="1.5" stroke-linecap="round" stroke-linejoin="round"/>
</g>
</svg>
